<svg xmlns="http://www.w3.org/2000/svg" version="1.1" xmlns:xlink="http://www.w3.org/1999/xlink" width="1000" height="1000"><g clip-path="url(#SvgjsClipPath1175)"><rect width="1000" height="1000" fill="#ffffff"></rect><g transform="matrix(37.5,0,0,37.5,50,50)"><svg xmlns="http://www.w3.org/2000/svg" version="1.1" xmlns:xlink="http://www.w3.org/1999/xlink" width="24" height="24"><svg xmlns="http://www.w3.org/2000/svg" width="24" height="24" viewBox="0 0 24 24" fill="none" stroke="currentColor" stroke-width="2" stroke-linecap="round" stroke-linejoin="round" class="lucide lucide-turtle-icon lucide-turtle"><path d="m12 10 2 4v3a1 1 0 0 0 1 1h2a1 1 0 0 0 1-1v-3a8 8 0 1 0-16 0v3a1 1 0 0 0 1 1h2a1 1 0 0 0 1-1v-3l2-4h4Z"></path><path d="M4.82 7.9 8 10"></path><path d="M15.18 7.9 12 10"></path><path d="M16.93 10H20a2 2 0 0 1 0 4H2"></path></svg></svg></g></g><defs><clipPath id="SvgjsClipPath1175"><rect width="1000" height="1000" x="0" y="0" rx="500" ry="500"></rect></clipPath></defs></svg>